<svg width="72" height="72" viewBox="0 0 72 72" fill="none" xmlns="http://www.w3.org/2000/svg">
<path d="M67.1975 60.1875L37.9475 9.5625C37.5115 8.81016 36.7592 8.4375 35.9998 8.4375C35.2404 8.4375 34.4811 8.81016 34.0522 9.5625L4.80217 60.1875C3.93733 61.6922 5.02014 63.5625 6.74983 63.5625H65.2498C66.9795 63.5625 68.0623 61.6922 67.1975 60.1875ZM33.7498 29.25C33.7498 28.9406 34.0029 28.6875 34.3123 28.6875H37.6873C37.9967 28.6875 38.2498 28.9406 38.2498 29.25V42.1875C38.2498 42.4969 37.9967 42.75 37.6873 42.75H34.3123C34.0029 42.75 33.7498 42.4969 33.7498 42.1875V29.25ZM35.9998 54C35.1166 53.982 34.2757 53.6185 33.6575 52.9875C33.0393 52.3565 32.693 51.5084 32.693 50.625C32.693 49.7416 33.0393 48.8935 33.6575 48.2625C34.2757 47.6315 35.1166 47.268 35.9998 47.25C36.883 47.268 37.7239 47.6315 38.3421 48.2625C38.9604 48.8935 39.3066 49.7416 39.3066 50.625C39.3066 51.5084 38.9604 52.3565 38.3421 52.9875C37.7239 53.6185 36.883 53.982 35.9998 54Z" fill="#F5222D"/>
</svg>
