<svg width="64" height="64" viewBox="0 0 64 64" fill="none" xmlns="http://www.w3.org/2000/svg">
<path d="M64 32C64 49.6731 49.6731 64 32 64C14.3269 64 0 49.6731 0 32C0 14.3269 14.3269 0 32 0C49.6731 0 64 14.3269 64 32ZM15.4505 32C15.4505 41.14 22.86 48.5495 32 48.5495C41.14 48.5495 48.5495 41.14 48.5495 32C48.5495 22.86 41.14 15.4505 32 15.4505C22.86 15.4505 15.4505 22.86 15.4505 32Z" fill="#52C41A" fill-opacity="0.2"/>
<path d="M58 32C58 46.3594 46.3594 58 32 58C17.6406 58 6 46.3594 6 32C6 17.6406 17.6406 6 32 6C46.3594 6 58 17.6406 58 32ZM18.5535 32C18.5535 39.4263 24.5737 45.4465 32 45.4465C39.4263 45.4465 45.4465 39.4263 45.4465 32C45.4465 24.5737 39.4263 18.5535 32 18.5535C24.5737 18.5535 18.5535 24.5737 18.5535 32Z" fill="#52C41A" fill-opacity="0.5"/>
<path d="M32 12.5C28.1433 12.5 24.3731 13.6437 21.1664 15.7863C17.9596 17.929 15.4603 20.9745 13.9844 24.5377C12.5084 28.1008 12.1223 32.0216 12.8747 35.8043C13.6271 39.5869 15.4843 43.0615 18.2114 45.7886C20.9386 48.5157 24.4131 50.3729 28.1957 51.1253C31.9784 51.8777 35.8992 51.4916 39.4623 50.0156C43.0255 48.5397 46.071 46.0404 48.2137 42.8336C50.3564 39.6269 51.5 35.8567 51.5 32C51.4945 26.83 49.4383 21.8732 45.7826 18.2174C42.1268 14.5617 37.1701 12.5055 32 12.5ZM40.5613 28.5613L30.0613 39.0613C29.9219 39.2007 29.7565 39.3114 29.5744 39.3868C29.3923 39.4623 29.1971 39.5012 29 39.5012C28.8029 39.5012 28.6077 39.4623 28.4256 39.3868C28.2435 39.3114 28.0781 39.2007 27.9388 39.0613L23.4388 34.5613C23.1573 34.2798 22.9992 33.898 22.9992 33.5C22.9992 33.102 23.1573 32.7202 23.4388 32.4387C23.7202 32.1573 24.102 31.9992 24.5 31.9992C24.8981 31.9992 25.2798 32.1573 25.5613 32.4387L29 35.8794L38.4388 26.4387C38.5781 26.2994 38.7436 26.1888 38.9257 26.1134C39.1078 26.038 39.3029 25.9992 39.5 25.9992C39.6971 25.9992 39.8923 26.038 40.0744 26.1134C40.2564 26.1888 40.4219 26.2994 40.5613 26.4387C40.7006 26.5781 40.8112 26.7436 40.8866 26.9257C40.962 27.1077 41.0008 27.3029 41.0008 27.5C41.0008 27.6971 40.962 27.8923 40.8866 28.0743C40.8112 28.2564 40.7006 28.4219 40.5613 28.5613Z" fill="#52C41A"/>
</svg>
